<?xml version="1.0" encoding="utf-8"?>
<!-- Generator: Adobe Illustrator 25.0.0, SVG Export Plug-In . SVG Version: 6.00 Build 0)  -->
<svg version="1.1" id="Layer_1" xmlns="http://www.w3.org/2000/svg" xmlns:xlink="http://www.w3.org/1999/xlink" x="0px" y="0px"
	 viewBox="0 0 1296 301.2" style="enable-background:new 0 0 1296 301.2;" xml:space="preserve">
<style type="text/css">
	.st0{fill:#FFFFFF;}
	.st1{fill:#006DB6;}
</style>
<circle class="st0" cx="87.6" cy="87.6" r="65.8"/>
<polygon class="st0" points="270.9,116.3 270.9,35.8 256.4,35.8 256.4,90.6 256.2,90.6 224.5,35.8 208.5,35.8 208.5,116.3 
	223,116.3 223,59 223.2,59 256,116.3 "/>
<rect x="284" y="58.3" class="st0" width="13.8" height="57.9"/>
<rect x="284" y="34.7" class="st0" width="13.8" height="12.9"/>
<path class="st0" d="M415.3,57.2c-6.6-0.2-10.9,1.5-13.6,5.1c-4-3.3-9.1-5.1-14.3-5.1c-15,0-22.8,10-22.8,20.1
	c0,7,3.8,11.5,8.6,15.4c-2.6,0.8-9,5-9,10.6c0,6.2,5.9,7.7,8.6,9.3v0.2c-5.6-0.1-10.3,4.3-10.5,9.9c0,0.3,0,0.5,0,0.8
	c0,3.4,1.6,6.7,4.5,8.7v75.9h13.8V137c2.5,0.3,5,0.4,7.6,0.4c18.5,0,26.8-8.9,26.8-17.2c0-23.2-38.1-10.5-38.1-19.8
	c0-3.3,4.8-3.6,10.8-3.6c14.5,0,21.8-7.8,21.8-18.7c0.1-3.7-1-7.3-3.1-10.3c2.1-1.3,5.7-1.3,8.9-1.3L415.3,57.2z M384.8,115.1
	c13.4,0,17.5,4,17.5,6.7c0,2-3,6.5-11.9,6.5c-11.6,0-15.4-2-15.4-6.5C375,119.4,377.3,115.1,384.8,115.1L384.8,115.1z M387.4,86.6
	c-5.9,0-10-4.2-10-9.6s4.1-9.6,10-9.6c5.3,0.2,9.4,4.6,9.3,9.9C396.5,82.4,392.4,86.5,387.4,86.6z"/>
<path class="st0" d="M464.6,107.9V80.6c0-17.4-6.7-23-22.3-23.4c-8.5-0.2-18,4.5-21.6,10.6l8.9,6.8c2.7-3.7,6.2-7.1,12.7-7.1
	c4.9,0,8.5,2.4,8.5,6.9v4.9c-22.5,2.7-33.2,9.6-33.2,22.7c0,7.9,5.2,15.4,15.7,15.4c7.2,0,12.5-2.3,18-6.1l0.9,5h13.5
	C464.9,113.5,464.5,110.7,464.6,107.9z M450.8,101c-2.9,2.4-8.4,6.1-12.7,6.1c-3.9,0-6.7-2.4-6.7-6.8c0-8.1,10.1-10,19.4-11.8V101z"
	/>
<path class="st0" d="M354.2,107.9V80.6c0-17.4-6.7-23-22.3-23.4c-8.5-0.2-18,4.5-21.6,10.6l8.9,6.8c2.7-3.7,6.2-7.1,12.7-7.1
	c4.9,0,8.5,2.4,8.5,6.9v4.9c-22.5,2.7-33.2,9.6-33.2,22.7c0,7.9,5.2,15.4,15.7,15.4c7.2,0,12.5-2.3,18-6.1l0.9,5h13.5
	C354.5,113.6,354.1,110.7,354.2,107.9z M340.4,101c-2.9,2.4-8.4,6.1-12.7,6.1c-3.9,0-6.7-2.4-6.7-6.8c0-8.1,10.1-10,19.4-11.8V101z"
	/>
<path class="st0" d="M504.2,71.7c0.8,0,1.6,0,2.4,0.1V57.2c-8.2,0.2-12.9,4.1-16.3,11h-0.2v-9.9h-12.7v57.9h13.8V81.1
	C491.3,79.6,497.3,71.7,504.2,71.7z"/>
<path class="st0" d="M555.7,107.9V80.6c0-17.4-6.7-23-22.3-23.4c-8.5-0.2-18,4.5-21.6,10.6l8.9,6.8c2.7-3.7,6.2-7.1,12.7-7.1
	c4.9,0,8.5,2.4,8.5,6.9v4.9c-22.5,2.7-33.2,9.6-33.2,22.7c0,7.9,5.2,15.4,15.7,15.4c7.3,0,12.5-2.3,18-6.1l0.9,5h13.5
	C555.9,113.5,555.6,110.7,555.7,107.9z M541.9,101c-2.9,2.4-8.4,6.1-12.7,6.1c-3.9,0-6.7-2.4-6.7-6.8c0-8.1,10.1-10,19.4-11.8V101z"
	/>
<path class="st0" d="M202.8,167.9c0,26.3,11.8,41.3,32.3,41.3c14.7,0,25.2-7.1,30-21l-14.3-3.8c-4.6,9.5-8.8,11.9-15.7,11.9
	c-11.6,0-17.1-9.6-16.9-28.4c0-18.8,6.2-28.4,16.5-28.4c7.6,0,12.4,4.8,14.6,11.6l13.9-3.3c-3.8-14.3-12.7-21.2-28.1-21.2
	C214.6,126.6,202.8,141.7,202.8,167.9z"/>
<path class="st0" d="M296.7,149.1c-15.7,0-25.2,11.7-25.2,30.1s9.5,30.1,25.2,30.1s25.2-11.7,25.2-30.1S312.4,149.1,296.7,149.1z
	 M296.7,198.1c-7.7,0-11.4-6-11.4-18.9s3.7-18.9,11.4-18.9s11.4,6,11.4,18.9S304.4,198.1,296.7,198.1z"/>
<rect x="334.5" y="127.7" class="st0" width="13.8" height="80.4"/>
<path class="st0" d="M442,175.7c0-13.9-8.5-26.7-23.6-26.6c-15.7,0-25.2,11.7-25.2,30.1s9.5,30.1,24.5,30.1
	c11.1,0,18.9-3.6,24.3-11.8l-10-6.2c-3.5,4-6.5,6.9-12.9,6.9s-11.8-4.7-12-16.7h35L442,175.7z M407,172.1c0.2-8,4.5-12.7,11.1-12.7
	s10.9,4.7,11.1,12.7H407z"/>
<path class="st0" d="M557.1,175.7c0-13.9-8.5-26.7-23.6-26.6c-15.7,0-25.2,11.7-25.2,30.1s9.5,30.1,24.5,30.1
	c11.1,0,18.9-3.6,24.3-11.8l-10-6.2c-3.5,4-6.5,6.9-12.9,6.9s-11.8-4.7-12-16.7h35L557.1,175.7z M522.1,172.1
	c0.2-8,4.5-12.7,11.1-12.7s10.9,4.7,11.1,12.7H522.1z"/>
<path class="st0" d="M202.8,259.8c0,26.3,11.8,41.3,32.3,41.3c14.7,0,25.2-7.1,30-21l-14.3-3.8c-4.6,9.5-8.8,11.9-15.7,11.9
	c-11.6,0-17.1-9.6-16.9-28.4c0-18.8,6.2-28.4,16.5-28.4c7.6,0,12.4,4.8,14.6,11.6l13.9-3.3c-3.8-14.3-12.7-21.2-28.1-21.2
	C214.6,218.5,202.8,233.6,202.8,259.8z"/>
<path class="st0" d="M316.5,291.7v-27.3c0-17.4-6.7-23.1-22.3-23.4c-8.5-0.2-18,4.5-21.6,10.6l8.9,6.8c2.7-3.7,6.2-7.1,12.7-7.1
	c4.9,0,8.5,2.4,8.5,6.9v4.9c-22.5,2.7-33.2,9.6-33.2,22.7c0,7.9,5.2,15.4,15.7,15.4c7.2,0,12.5-2.3,18-6.1l0.9,5h13.5
	C316.8,297.3,316.4,294.5,316.5,291.7z M302.7,284.8c-2.9,2.5-8.3,6.1-12.7,6.1c-3.9,0-6.7-2.5-6.7-6.8c0-8.1,10.1-10,19.4-11.8
	V284.8z"/>
<path class="st0" d="M331.5,300h13.8v-41.8c3.3-3.8,8-6,12.9-6.1c4.7,0,7.1,2.4,7.1,10.2V300h13.8v-39.7c0-11.8-5.6-19.4-17.1-19.4
	c-6.8,0-12.7,3.8-17.8,7.4v-6.2h-12.7L331.5,300z"/>
<path class="st0" d="M436.4,291.7v-27.3c0-17.4-6.7-23.1-22.3-23.4c-8.5-0.2-18,4.5-21.6,10.6l8.9,6.8c2.7-3.7,6.2-7.1,12.7-7.1
	c4.9,0,8.5,2.4,8.5,6.9v4.9c-22.5,2.7-33.2,9.6-33.2,22.7c0,7.9,5.2,15.4,15.7,15.4c7.2,0,12.5-2.3,18-6.1l0.9,5h13.5
	C436.7,297.3,436.3,294.5,436.4,291.7z M422.6,284.8c-2.9,2.5-8.4,6.1-12.7,6.1c-3.9,0-6.7-2.5-6.7-6.8c0-8.1,10.1-10,19.4-11.8
	V284.8z"/>
<path class="st0" d="M556.2,291.7v-27.3c0-17.4-6.7-23.1-22.3-23.4c-8.5-0.2-18,4.5-21.6,10.6l8.9,6.8c2.7-3.7,6.2-7.1,12.7-7.1
	c4.9,0,8.5,2.4,8.5,6.9v4.9c-22.5,2.7-33.2,9.6-33.2,22.7c0,7.9,5.2,15.4,15.7,15.4c7.2,0,12.5-2.3,18-6.1l0.9,5h13.5
	C556.5,297.3,556.1,294.5,556.2,291.7z M542.4,284.8c-2.9,2.5-8.3,6.1-12.7,6.1c-3.9,0-6.7-2.5-6.7-6.8c0-8.1,10.1-10,19.4-11.8
	V284.8z"/>
<path class="st0" d="M503,149.1c-6.6-0.2-10.9,1.6-13.6,5.1c-4-3.3-9.1-5.1-14.3-5.1c-15,0-22.8,10-22.8,20.1c0,7,3.8,11.5,8.6,15.4
	c-2.6,0.8-9,5-9,10.6c0,6.2,5.9,7.7,8.6,9.4v0.2c-5.6-0.1-10.3,4.3-10.5,9.9c0,0.3,0,0.5,0,0.8c0,9.1,10.2,13.8,25.8,13.8
	c3.1,0,6.3-0.3,9.4-0.9v19H485c-2.8-3.7-9.4-6.5-14-6.5c-14.9,0-23.2,14.3-23.2,28.5c0,18,7.8,31.6,23.2,31.6
	c6.2,0,10.8-2.6,15.7-7.4l0.7,6.2H499v-78.7c2.3-2.5,3.6-5.7,3.7-9.1c0-23.2-38.1-10.5-38.1-19.8c0-3.4,4.8-3.6,10.8-3.6
	c14.5,0,21.8-7.8,21.8-18.7c0.1-3.7-1-7.3-3.1-10.3c2.1-1.3,5.7-1.3,8.9-1.3L503,149.1z M485.2,284.9c-2.9,2.2-4.8,5.1-10.7,5.1
	c-8.3,0-12.9-6.7-12.9-18.9s4.7-18.9,12.9-18.9c4.5,0,7.9,2.3,10.7,4.9V284.9z M472.5,207c13.4,0,17.5,4,17.5,6.7
	c0,2-3,6.5-11.9,6.5c-11.6,0-15.4-2-15.4-6.5C462.7,211.3,464.9,207,472.5,207z M475,178.5c-5.9,0-10-4.2-10-9.6s4.1-9.6,10-9.6
	c5.3,0,9.6,4.3,9.6,9.6S480.3,178.5,475,178.5z"/>
<path class="st1" d="M87.6,0C39.2,0,0,39.2,0,87.6s39.2,87.6,87.6,87.6s87.6-39.2,87.6-87.6c0,0,0,0,0,0C175.1,39.2,135.9,0,87.6,0
	C87.6,0,87.6,0,87.6,0z M83.3,116.5H69.5V78.9c0-7.8-2.4-10.2-7.1-10.2c-5,0.1-9.7,2.3-12.9,6.1v41.8H35.6V58.6h12.7v6.2
	c5.1-3.6,11-7.4,17.8-7.4c11.6,0,17.2,7.6,17.2,19.4L83.3,116.5z M118.3,117.6c-15.7,0-25.2-11.7-25.2-30.1s9.5-30.1,25.2-30.1
	c10.9,0,19.6,5.8,22.8,15.5l-11.5,4.5c-2.2-4.9-4.7-8.8-11.4-8.8c-7.7,0-11.4,6-11.4,18.9s3.7,18.9,11.8,18.9c6,0,9.5-4.1,12.3-9.2
	l10.5,5.9C135.9,113.5,128.9,117.7,118.3,117.6L118.3,117.6z"/>
<rect x="648.5" class="st0" width="1" height="301.2"/>
<g>
	<rect x="886.8" y="82.6" width="409.2" height="135.9"/>
	<rect x="739.9" y="82.6" width="135.7" height="135.9"/>
	<g id="MAin-Logo_1_">
		<g id="Group-2_1_">
			<path id="Path_1_" class="st0" d="M817.8,140c0,0-4.8-2.2-8.6-2.2c-3,0.2-5.9,0.9-8.6,2.2c0,0,5.2-1.9,8.6-1.8
				C812.1,138.3,815,138.9,817.8,140z"/>
			<path id="Shape_1_" class="st0" d="M809.6,82.6l3.2,51.6c-2.4-0.6-5-0.6-7.4,0l3.2-51.6h-68.6v135.9h61.3c1-19.4,2-37.9,2.5-48.6
				c0.3-6.1,0.5-9.8,0.5-9.8s0.4-3.4,5.2-3.4c2.1-0.1,4,1.3,4.6,3.4c0,0.2,0.2,3.8,0.6,9.6c0.7,10.7,1.8,29.3,3,48.7h57.9V82.6
				H809.6z M798.3,140.8l0.1-0.2c1.4-2.7,3.9-4.7,6.8-5.4c0.6-0.2,1.2-0.3,1.8-0.4h0.1c0.6-0.1,1.3-0.1,1.9-0.1c0.6,0,1.3,0,1.9,0.1
				h0.1c3.6,0.4,6.9,2.6,8.6,5.8l0.1,0.1c2.5,2.1,4,5.1,4.1,8.4c0,0.8-0.1,1.5-0.3,2.3c-1.9-5.1-7.7-8.9-14.5-8.9
				s-12.6,3.8-14.5,8.9c-0.2-0.7-0.3-1.5-0.3-2.3C794.3,145.9,795.8,142.8,798.3,140.8z M816.1,169.3c-0.3-5.7-0.6-9.1-0.6-9.3
				c-0.7-2.8-3.2-4.7-6.1-4.7c-6.1,0-6.6,4.7-6.6,4.8s-0.2,3.5-0.5,9.4c-5-2.1-8.5-6.4-8.5-11.3c0-7,6.8-12.6,15.3-12.6
				s15.2,5.7,15.2,12.6C824.3,163,821,167.2,816.1,169.3z"/>
			<path id="Path-2_1_" class="st0" d="M976.5,110.1c-6.8,0-10,4.1-10,13.8v9.7c0,9.7,3.2,13.8,10,13.8s10-4.1,10-13.8v-9.7
				C986.5,114.2,983.3,110.1,976.5,110.1z"/>
			<path id="Path-3_1_" class="st0" d="M1107.9,183.3c-0.3,0-0.4,0.2-0.4,0.4l-1.8,8.3h4.5l-1.8-8.3
				C1108.2,183.4,1108.2,183.3,1107.9,183.3z"/>
			<path id="Path-4_1_" class="st0" d="M1042.3,117.9v-1.1c0-4.9-3.8-7.2-10.6-7.2c-1.1,0-5.3,0.2-6.3,0.2v15.5
				c0.9,0.1,4.8,0.2,5.7,0.2C1039.7,125.7,1042.3,123.4,1042.3,117.9z"/>
			<path id="Path-5_1_" class="st0" d="M1150.6,183.3c-0.3,0-0.4,0.2-0.4,0.4l-1.8,8.3h4.5l-1.9-8.3
				C1151,183.4,1150.9,183.3,1150.6,183.3z"/>
			<path id="Path-6_1_" class="st0" d="M1099.6,133.6v-9.7c0-9.7-3.2-13.8-10-13.8s-9.9,4.1-9.9,13.8v9.7c0,9.7,3.2,13.8,10,13.8
				S1099.6,143.3,1099.6,133.6z"/>
			<path id="Path-7_1_" class="st0" d="M1036.1,183.5c-2.5,0-3.7,1.5-3.7,5.1v3.6c0,3.6,1.1,5.1,3.7,5.1s3.7-1.5,3.7-5.1v-3.6
				C1039.8,185,1038.6,183.5,1036.1,183.5z"/>
			<path id="Path-8_1_" class="st0" d="M1255,147.4c6.8,0,10-4.1,10-13.8v-9.6c0-9.7-3.3-13.8-10-13.8s-10,4.1-10,13.8v9.7
				C1245,143.3,1248.2,147.4,1255,147.4z"/>
			<path id="Path-9_1_" class="st0" d="M990.7,183.5c-2.5,0-3.7,1.5-3.7,5.1v3.6c0,3.6,1.1,5.1,3.7,5.1s3.7-1.5,3.7-5.1v-3.6
				C994.4,185,993.2,183.5,990.7,183.5z"/>
			<path id="Path-10_1_" class="st0" d="M969.3,183.5c-2.5,0-3.7,1.5-3.7,5.1v3.6c0,3.6,1.1,5.1,3.7,5.1s3.8-1.5,3.8-5.1v-3.6
				C973.1,185,971.8,183.5,969.3,183.5z"/>
			<path id="Shape-2_1_" class="st0" d="M886.8,82.6v135.9H1296V82.6H886.8z M1231.1,123.9c0-18.8,10.6-26,24-26s24,7.2,24,26v9.7
				c0,18.8-10.6,26-23.9,26s-24-7.2-24-26L1231.1,123.9z M909.5,201.9c-1.9,0-3.8-0.2-5.7-0.7c-0.3-0.1-0.6-0.3-0.6-0.6v-2.9
				c0-0.3,0.2-0.5,0.4-0.6c0,0,0.1,0,0.1,0h0.1c1.2,0.1,4.5,0.4,5.7,0.4c2.1,0,2.7-0.7,2.7-2.1c0-0.9-0.4-1.4-2-2.3l-4.2-2.5
				c-2.8-1.7-3.6-3.6-3.6-5.8c0-3.3,1.9-5.9,7.7-5.9c2.1,0,4.3,0.2,6.4,0.7c0.3,0,0.5,0.3,0.5,0.5v3c0,0.1,0,0.3-0.1,0.4
				c-0.1,0.1-0.2,0.2-0.4,0.1h-0.1c-0.8,0-4.3-0.3-6.4-0.3c-1.7,0-2.3,0.5-2.3,1.6c0,0.8,0.4,1.2,2,2.1l3.9,2.1
				c3.1,1.7,4.1,3.7,4.1,6.1C917.7,198.5,915.6,201.9,909.5,201.9L909.5,201.9z M918.1,157.2v-47.1h-13.2c-0.4,0-0.8-0.1-1.1-0.4
				c-0.3-0.3-0.5-0.7-0.5-1.1v-8.3c0-0.4,0.2-0.8,0.5-1.1c0.3-0.3,0.7-0.4,1.1-0.4H945c0.9,0,1.7,0.6,1.7,1.5v8.3
				c0,0.4-0.2,0.8-0.5,1.1c-0.3,0.3-0.7,0.4-1.2,0.4h-13.1v47.1c0,0.9-0.7,1.6-1.6,1.6h-10.6C918.8,158.8,918.1,158.1,918.1,157.2
				C918.1,157.2,918.1,157.2,918.1,157.2L918.1,157.2z M935,183.1c0,0.2,0,0.3-0.2,0.4c-0.1,0.1-0.3,0.2-0.4,0.2h-0.1
				c-1.1-0.1-2.8-0.3-4.5-0.3c-2.1,0-3.7,1.1-3.7,5.1v3.8c0,4,1.7,5.1,3.7,5.1c1.7,0,3.3-0.1,4.5-0.2h0.1c0.2,0,0.3,0,0.4,0.2
				c0.1,0.1,0.2,0.3,0.2,0.4v2.9c0,0.4-0.2,0.6-0.7,0.7c-1.5,0.4-3,0.5-4.5,0.5c-4.6,0-8.9-2.4-8.9-9.6v-3.8c0-7.2,4.3-9.5,8.9-9.5
				c1.5,0,3.1,0.1,4.5,0.5c0.4,0.1,0.7,0.2,0.7,0.6V183.1z M956.4,201.1c0,0.3-0.3,0.6-0.6,0.6h-3.9c-0.3,0-0.6-0.3-0.6-0.6v-8.7
				h-7.5v8.6c0,0.3-0.3,0.6-0.6,0.6h-3.9c-0.3,0-0.6-0.3-0.6-0.6v-21.2c0-0.2,0.1-0.3,0.2-0.4c0.1-0.1,0.3-0.2,0.4-0.2h4
				c0.2,0,0.3,0.1,0.4,0.2c0.1,0.1,0.2,0.3,0.2,0.4v8h7.4v-8c0-0.2,0.1-0.3,0.2-0.4c0.1-0.1,0.3-0.2,0.4-0.2h3.9
				c0.2,0,0.3,0,0.4,0.2c0.1,0.1,0.2,0.3,0.2,0.4L956.4,201.1z M978.3,192.3c0,7-3.9,9.7-8.9,9.7s-8.9-2.7-8.9-9.7v-3.6
				c0-7,4-9.7,8.9-9.7s8.9,2.7,8.9,9.7V192.3z M999.6,192.3c0,7-4,9.7-8.9,9.7s-8.9-2.7-8.9-9.7v-3.6c0-7,4-9.7,8.9-9.7
				s8.9,2.7,8.9,9.7V192.3z M1000.4,133.6c0,18.8-10.6,26-24,26s-23.9-7.2-23.9-26v-9.7c0-18.8,10.6-26,24-26s23.9,7.2,23.9,26
				L1000.4,133.6z M1016.4,201c0,0.4-0.2,0.5-0.6,0.6c-1.6,0.3-3.3,0.4-4.9,0.4c-3.9,0-7.3-1-7.3-6.5v-15.6c0-0.3,0.3-0.6,0.6-0.6
				h3.9c0.3,0,0.6,0.3,0.6,0.6c0,0,0,0,0,0v15.6c0,1.6,0.5,2,1.9,2h5.2c0.3,0,0.6,0.3,0.6,0.6V201z M1025.3,157.2
				c0,0.9-0.7,1.6-1.6,1.6h-10.5c-0.9-0.1-1.5-0.8-1.5-1.7v-54.3c0-2.8,1.1-3.5,3.6-3.9c5.4-0.7,10.9-1,16.4-1
				c13.8,0,24.4,4.6,24.4,18.9v1.1c0,8.6-4.5,13.8-10.4,16.2l12.2,22.8c0.1,0.3,0.2,0.6,0.2,0.9c0,0.6-0.3,1-1.2,1h-12.4
				c-0.9,0-1.2-0.8-1.6-1.6l-10.8-20.5l-0.9,0.1c-1.7,0-4.2-0.2-5.8-0.2L1025.3,157.2z M1045,192.3c0,7-4,9.7-8.9,9.7
				s-8.9-2.7-8.9-9.7v-3.7c0-7,3.9-9.7,8.9-9.7s8.9,2.7,8.9,9.7V192.3z M1062.7,182.8c0,0.3-0.3,0.6-0.6,0.6c0,0,0,0,0,0h-6.1
				c-1.4,0-1.9,0.5-1.9,2v2.7h7.8c0.3,0,0.6,0.3,0.6,0.6v2.9c0,0.3-0.3,0.6-0.6,0.6h-7.8v8.8c0,0.3-0.3,0.6-0.6,0.6h-3.9
				c-0.3,0-0.6-0.3-0.6-0.6c0,0,0,0,0,0v-15.6c0-5.5,3.5-6.4,7.4-6.4c1.9,0,3.9,0.1,5.8,0.4c0.4,0,0.6,0.2,0.6,0.6L1062.7,182.8z
				 M1065.7,133.6v-9.7c0-18.8,10.6-26,24-26s23.9,7.2,23.9,26v9.7c0,18.8-10.6,26-23.9,26S1065.7,152.3,1065.7,133.6L1065.7,133.6z
				 M1095.4,201.3c0,0.3-0.3,0.4-0.5,0.4h-4c-0.3,0-0.5-0.3-0.5-0.6c0,0,0,0,0,0v-12.6c0-0.2-0.1-0.2-0.2-0.2
				c-0.1,0-0.2,0.1-0.3,0.2l-2.7,5c-0.2,0.3-0.5,0.5-0.9,0.5h-2.4c-0.4,0-0.7-0.2-0.9-0.5l-2.7-5c-0.1-0.1-0.2-0.2-0.2-0.2
				s-0.2,0-0.2,0.2V201c0,0.3-0.2,0.6-0.5,0.6h-4c-0.2,0-0.5-0.1-0.5-0.4v-20.9c0-0.3,0.1-0.6,0.3-0.8c0.2-0.2,0.5-0.3,0.8-0.3h2.9
				c0.6,0,1.1,0.3,1.3,0.8l4.6,8.6c0.1,0.2,0.2,0.4,0.3,0.4s0.2-0.1,0.3-0.4l4.6-8.6c0.2-0.5,0.8-0.8,1.3-0.8h2.8
				c0.3,0,0.6,0.1,0.8,0.3c0.2,0.2,0.3,0.5,0.3,0.8L1095.4,201.3z M1116.9,201.7h-4.2c-0.3,0-0.6-0.2-0.6-0.5l-1.1-4.9h-6.2
				l-1.1,4.9c-0.1,0.3-0.3,0.5-0.6,0.5h-4.1c-0.1,0-0.3,0-0.4-0.1c-0.1-0.1-0.2-0.2-0.2-0.4V201l4.5-18.7c0.7-2.9,2.9-3.4,5-3.4
				s4.3,0.4,5,3.4l4.5,18.7v0.2c0,0.1-0.1,0.3-0.2,0.4C1117.2,201.6,1117.1,201.6,1116.9,201.7L1116.9,201.7z M1138.2,200.5
				c0,0.3-0.1,0.6-0.3,0.8c-0.2,0.2-0.5,0.3-0.8,0.3h-3c-0.7,0.1-1.3-0.3-1.6-0.9l-6.9-11.9c-0.1-0.2-0.2-0.2-0.3-0.2
				s-0.1,0-0.1,0.2V201c0,0.3-0.3,0.6-0.6,0.6h-3.5c-0.3,0-0.6-0.3-0.6-0.6v-20.6c0-0.6,0.5-1.1,1.1-1.1h3c0.6,0,0.9,0.3,1.3,0.9
				l7.1,12.5c0.1,0.2,0.2,0.3,0.2,0.3s0.2-0.1,0.2-0.3v-12.8c0-0.2,0.1-0.3,0.2-0.4c0.1-0.1,0.3-0.2,0.4-0.2h3.6
				c0.2,0,0.3,0.1,0.4,0.2c0.1,0.1,0.2,0.3,0.2,0.4L1138.2,200.5z M1159.7,201.7h-4.2c-0.3,0-0.6-0.2-0.6-0.5l-1.1-4.9h-6.2
				l-1.1,4.9c0,0.3-0.3,0.5-0.6,0.5h-4.2c-0.1,0-0.3,0-0.4-0.1c-0.1-0.1-0.2-0.2-0.2-0.4V201l4.5-18.7c0.7-2.9,2.9-3.4,5-3.4
				s4.3,0.4,5,3.4l4.5,18.7v0.2c0,0.1-0.1,0.3-0.2,0.3C1159.9,201.6,1159.8,201.6,1159.7,201.7L1159.7,201.7z M1157.2,156.2
				l-18.4-31.8c-0.3-0.5-0.5-0.7-0.7-0.7s-0.4,0.2-0.4,0.7v32.8c0,0.9-0.7,1.6-1.6,1.6c0,0,0,0,0,0h-9.5c-0.9,0-1.6-0.7-1.6-1.6
				c0,0,0,0,0,0v-55.4c0-0.8,0.3-1.6,0.9-2.2c0.6-0.6,1.4-0.9,2.2-0.9h8.1c1.6,0,2.4,0.8,3.4,2.5l19.2,33.3c0.3,0.5,0.4,0.6,0.6,0.6
				s0.4-0.2,0.4-0.7v-34.2c0-0.9,0.7-1.6,1.6-1.5c0,0,0,0,0,0h9.6c0.9,0,1.6,0.7,1.6,1.5c0,0,0,0,0,0v55.5c0,1.7-1.4,3.1-3.2,3.1
				h-7.9C1159.5,158.9,1157.8,157.9,1157.2,156.2L1157.2,156.2z M1178.5,183.3c0,0.3-0.2,0.4-0.4,0.4h-0.1c-1.4,0-3.7-0.2-6.3-0.2
				s-3.9,1.1-3.9,5.1v3.8c0,4.2,1.9,5.1,3.4,5.1c0.8,0,1.5,0,2.3-0.1v-6.9c0-0.2,0-0.3,0.2-0.4c0.1-0.1,0.3-0.2,0.4-0.2h3.8
				c0.3,0,0.6,0.3,0.6,0.6v10.1c0,0.4-0.2,0.6-0.6,0.7c-2.2,0.4-4.5,0.7-6.8,0.6c-3.4,0-8.6-2-8.6-9.6v-3.7c0-7.7,4.8-9.6,9.2-9.6
				c2.1,0,4.2,0.2,6.3,0.7c0.3,0,0.5,0.2,0.5,0.4c0,0,0,0,0,0L1178.5,183.3z M1196.6,182.8c0,0.3-0.3,0.6-0.6,0.6h-6.1
				c-1.4,0-1.9,0.5-1.9,2v2.7h7.8c0.2,0,0.3,0.1,0.4,0.2c0.1,0.1,0.2,0.3,0.2,0.4v2.9c0,0.3-0.3,0.6-0.6,0.6h-7.8v3.2
				c0,1.6,0.5,2,1.9,2h6.1c0.3,0,0.6,0.3,0.6,0.6v2.8c0,0.4-0.2,0.6-0.6,0.6c-1.9,0.3-3.9,0.4-5.8,0.4c-3.9,0-7.3-1-7.3-6.5v-10
				c0-5.5,3.4-6.4,7.3-6.4c1.9,0,3.9,0.1,5.8,0.4c0.3,0,0.6,0.2,0.6,0.4c0,0.1,0,0.1,0,0.2L1196.6,182.8z M1221,201.2
				c0,0.3-0.3,0.4-0.5,0.4h-4c-0.3,0-0.5-0.3-0.5-0.6v-12.6c0-0.2-0.1-0.2-0.1-0.2s-0.2,0.1-0.2,0.2l-2.7,5
				c-0.2,0.3-0.5,0.5-0.9,0.5h-2.4c-0.4,0-0.7-0.2-0.9-0.5l-2.7-5c-0.1-0.1-0.2-0.2-0.2-0.2s-0.2,0-0.2,0.2V201
				c0,0.3-0.2,0.6-0.5,0.6h-4c-0.2,0-0.5-0.1-0.5-0.4v-20.9c0-0.3,0.1-0.6,0.3-0.8c0.2-0.2,0.5-0.3,0.8-0.3h2.8
				c0.6,0,1.1,0.3,1.3,0.8l4.6,8.6c0.1,0.2,0.2,0.4,0.3,0.4s0.2-0.1,0.3-0.4l4.6-8.6c0.2-0.5,0.8-0.8,1.3-0.8h2.8
				c0.3,0,0.6,0.1,0.8,0.3c0.2,0.2,0.3,0.5,0.3,0.8L1221,201.2z M1225.3,108.6c0,0.9-0.8,1.6-1.7,1.5h-13.1v47.1
				c0,0.9-0.7,1.6-1.6,1.6h-10.6c-0.9,0-1.6-0.7-1.6-1.6v-47.1h-13.2c-0.4,0-0.8-0.1-1.1-0.4c-0.3-0.3-0.5-0.7-0.5-1.1v-8.3
				c0-0.4,0.2-0.8,0.5-1.1c0.3-0.3,0.7-0.4,1.1-0.4h40.1c0.9,0,1.6,0.7,1.7,1.5L1225.3,108.6z M1239.2,182.8c0,0.3-0.3,0.6-0.6,0.6
				h-6.1c-1.4,0-1.9,0.5-1.9,2v2.7h7.8c0.3,0,0.6,0.3,0.6,0.6v2.9c0,0.3-0.3,0.6-0.6,0.6h-7.8v3.2c0,1.6,0.5,2,1.9,2h6.1
				c0.3,0,0.6,0.3,0.6,0.6v2.8c0,0.4-0.2,0.6-0.6,0.6c-1.9,0.3-3.9,0.4-5.8,0.4c-3.9,0-7.3-1-7.3-6.5v-10c0-5.5,3.5-6.4,7.4-6.4
				c1.9,0,3.9,0.1,5.8,0.4c0.3,0,0.6,0.2,0.6,0.4c0,0.1,0,0.1,0,0.2L1239.2,182.8z M1261.1,200.5c0,0.6-0.5,1.1-1.1,1.1h-3
				c-0.7,0.1-1.3-0.3-1.6-0.9l-6.9-11.9c-0.1-0.2-0.2-0.2-0.3-0.2s-0.2,0-0.2,0.2V201c0,0.3-0.3,0.6-0.6,0.6h-3.6
				c-0.3,0-0.6-0.3-0.6-0.6c0,0,0,0,0,0v-20.6c0-0.6,0.5-1.1,1.1-1.1l0,0h3c0.6,0,0.9,0.3,1.3,0.9l7.1,12.5c0.1,0.2,0.2,0.3,0.2,0.3
				s0.2-0.1,0.2-0.3v-12.8c0-0.2,0.1-0.3,0.2-0.4c0.1-0.1,0.3-0.2,0.4-0.2h3.6c0.2,0,0.3,0,0.4,0.2c0.1,0.1,0.2,0.3,0.2,0.4
				L1261.1,200.5z M1280.4,182.9c0,0.3-0.3,0.6-0.7,0.6h-4.9V201c0,0.3-0.3,0.6-0.6,0.6h-3.9c-0.3,0-0.6-0.3-0.6-0.6v-17.5h-4.9
				c-0.2,0-0.3-0.1-0.4-0.2c-0.1-0.1-0.2-0.3-0.2-0.4v-3.1c0-0.2,0.1-0.3,0.2-0.4c0.1-0.1,0.3-0.2,0.4-0.2h14.9
				c0.3,0,0.6,0.2,0.7,0.6V182.9z"/>
		</g>
	</g>
</g>
</svg>
