<?xml version="1.0" encoding="utf-8"?>
<!-- Generator: Adobe Illustrator 25.0.1, SVG Export Plug-In . SVG Version: 6.00 Build 0)  -->
<svg version="1.1" id="Layer_1" xmlns="http://www.w3.org/2000/svg" xmlns:xlink="http://www.w3.org/1999/xlink" x="0px" y="0px"
	 width="225px" height="98.9px" viewBox="0 0 225 98.9" style="enable-background:new 0 0 225 98.9;" xml:space="preserve">
<style type="text/css">
	.st0{fill:#FCCE1C;}
	.st1{fill:#BD242B;}
</style>
<path class="st0" d="M187.9,73.1h-9.2c-2.4,0-4.1-0.4-5-1.1c-0.9-0.7-1.4-1.9-1.4-3.6v-0.6c0-1.8,0.5-3,1.4-3.7
	c1-0.7,2.8-1.1,5.5-1.1h1.2c3.1,0,5.1,0.4,6,1.2c1,0.8,1.4,2.1,1.4,3.9V73.1z M196.2,40.2c-3.4-2.5-7.8-3.7-15.1-3.7h-16.6l1.7,5.2
	c1.1,3.2,4.1,5.4,7.6,5.4h6.4c1.9,0,2.5,0.1,3.6,0.4c1.1,0.3,2,0.7,2.6,1.3c0.6,0.6,1,1.3,1.2,2.2c0.2,0.9,0.3,1.9,0.3,3.1v2.1
	c-1.2-0.6-2.6-1.2-4.4-1.6c-1.8-0.5-4.1-0.7-7-0.7c-5.9,0-10.4,1.1-13.2,3.2c-2.9,2.1-4.3,5.6-4.3,10.3v1.8c0,2.1,0.3,4,0.9,5.7
	c0.6,1.7,1.5,3.1,2.9,4.2c1.3,1.2,3.1,2.1,5.2,2.7c2.2,0.6,4.9,0.9,8.1,0.9h15.3c1.8,0,3.3-0.1,4.6-0.4c1.3-0.3,2.3-0.8,3.1-1.5
	c0.8-0.7,1.3-1.6,1.7-2.7c0.3-1.1,0.5-2.5,0.5-4.2V52.7C201.3,46.9,199.6,42.7,196.2,40.2"/>
<path class="st0" d="M46.2,40.2c-1.7-1.3-3.9-2.3-6.6-2.9c-2.5-0.5-5.4-0.8-8.8-0.8l0,0H0.6l2,5.7c1,2.8,3.6,4.7,6.6,4.7
	c-0.5,1.9-0.8,4-0.8,6.5v29.3h13.8V54.3c0-1.2,0.1-2.2,0.3-3.1c0.2-0.9,0.5-1.6,1-2.1c0.5-0.6,1.3-1,2.3-1.2c1-0.3,2.4-0.4,4-0.4
	c1.7,0,3,0.1,4,0.4c1,0.3,1.8,0.7,2.3,1.2c0.5,0.6,0.9,1.3,1,2.1c0.2,0.9,0.3,1.9,0.3,3.1v28.3h13.8V53.3c0-3.1-0.4-5.8-1.2-7.9
	C49.2,43.2,47.9,41.5,46.2,40.2"/>
<path class="st0" d="M200.5,18.9l1.8,5.2c1.1,3.1,4,5.2,7.3,5.2v53.3h13.8V18.9H200.5z"/>
<path class="st0" d="M73.4,55.4c0-1.8,0.1-3.3,0.3-4.5c0.2-1.1,0.6-2,1.1-2.7c0.5-0.7,1.3-1.1,2.3-1.4c1-0.3,2.2-0.4,3.8-0.4
	s2.8,0.1,3.8,0.4c1,0.3,1.7,0.7,2.3,1.4c0.6,0.7,1,1.6,1.2,2.7c0.2,1.1,0.3,2.6,0.3,4.5H73.4z M96.8,40.9c-3.1-3-8.3-4.5-15.6-4.5
	H52.4l1.9,5.5c1,2.9,3.8,4.9,6.9,4.9c-0.2,0.5-0.4,1-0.5,1.5c-0.7,2.7-1.1,5.8-1.1,9.4v4.7c0,3.4,0.3,6.4,1,9
	c0.7,2.5,1.8,4.7,3.4,6.3c1.6,1.7,3.8,2.9,6.5,3.8c2.7,0.8,6.1,1.2,10.2,1.2h8.1c2.5,0,5.2-0.1,8.1-0.2l2-10.6
	c-3.4,0.1-6.5,0.1-9.2,0.1H82c-1.7,0-3.1-0.1-4.2-0.3c-1.1-0.2-2-0.6-2.6-1.2c-0.7-0.6-1.1-1.3-1.4-2.2c-0.3-0.9-0.4-2.1-0.5-3.6
	h20.4c1.4,0,2.7-0.1,3.6-0.4c1-0.3,1.8-0.8,2.4-1.5c0.6-0.7,1-1.7,1.3-2.9c0.2-1.2,0.3-2.7,0.3-4.6v-1.8
	C101.4,48.1,99.9,43.9,96.8,40.9"/>
<path class="st0" d="M141,62.8c0,2.2-0.1,4-0.3,5.4c-0.2,1.4-0.6,2.5-1.3,3.2c-0.6,0.7-1.4,1.2-2.5,1.5c-1.1,0.3-2.4,0.4-4.1,0.4
	c-1.6,0-3-0.1-4-0.4c-1.1-0.3-1.9-0.7-2.6-1.5c-0.6-0.7-1.1-1.7-1.3-2.9c-0.3-1.2-0.4-2.8-0.4-4.8v-6.2c0-2.2,0.1-4,0.4-5.4
	c0.3-1.4,0.7-2.4,1.3-3.1c0.6-0.7,1.5-1.2,2.6-1.5c1.1-0.3,2.4-0.4,4-0.4c1.6,0,3,0.1,4,0.4c1.1,0.3,1.9,0.8,2.6,1.5
	c0.6,0.7,1.1,1.8,1.3,3.2c0.2,1.4,0.3,3.2,0.3,5.5V62.8z M149.9,41.1c-1.8-1.7-4-2.8-6.8-3.6c-2.8-0.7-6.1-1.1-10-1.1h-29.6l1.9,5.6
	c1,2.9,3.7,4.8,6.8,4.8c-0.1,0.3-0.2,0.5-0.3,0.8c-0.8,2.7-1.3,6-1.3,9.9v40.1h13.8V81.5c1.2,0.8,2.6,1.4,4.2,1.8
	c1.7,0.4,3.7,0.6,6.1,0.6c3.5,0,6.6-0.4,9.1-1.1c2.5-0.7,4.6-2,6.3-3.7c1.6-1.7,2.9-3.9,3.6-6.7c0.8-2.7,1.2-6.1,1.2-10.1v-4.3
	c0-4.1-0.4-7.6-1.2-10.4C153,44.9,151.7,42.7,149.9,41.1"/>
<polyline class="st1" points="111.2,24.6 111.2,24.6 111.2,24.6 "/>
<path class="st1" d="M125.1,18.6l-0.1,0.2l0.2-0.1l-0.1,0.2l-0.2-0.1l-0.1,0l-0.1,0L125.1,18.6z M125.1,18.4L125.1,18.4l0-0.2
	l0.2,0.2L125.1,18.4l0.2,0.2l-0.2,0L125.1,18.4z M124.8,19.2l0-0.2l0-0.1l0-0.1l0.2,0.1l-0.2,0l0.2,0.1L124.8,19.2z M124.1,9.6
	l-0.1,0l-0.2,0l-0.1-0.3l0.3,0.2l0-0.2l0.3,0.3L124.1,9.6z M122.2,20.1l0.1-0.7l-0.4,0.3l0.3-0.7l0.1,0.2l0.1,0.2l0.3,0.4
	L122.2,20.1z M122,23.8l-0.2-0.1l-0.1,0l-0.1,0l0.3-0.3l-0.1,0.2l0.3-0.2L122,23.8z M121.9,24.3l0-0.2l0-0.1l0-0.1l0.2,0.1l-0.2,0
	l0.2,0.1L121.9,24.3z M121.6,24l0.1-0.2l-0.1,0.1l0.1-0.2l0,0.1l0,0.1l0.1,0.1L121.6,24z M121.3,24.4l0.1-0.2l-0.2,0l0.2-0.2l0,0.1
	l0,0.1l0,0.2L121.3,24.4z M121.3,23.3l-0.1,0.2l-0.3-0.1L121.3,23.3l-0.3-0.1l0.4-0.1L121.3,23.3L121.3,23.3z M120.8,24.7
	L120.8,24.7l-0.1,0l0.1-0.2L120.8,24.7l0.1-0.2l0,0.2L120.8,24.7z M120.9,25.4L120.9,25.4L120.9,25.4l0-0.1L120.9,25.4l0.1-0.1
	L120.9,25.4L120.9,25.4z M120.6,24.1L120.6,24.1l0-0.1l0.2,0.1L120.6,24.1l0.2,0.1l-0.2,0L120.6,24.1z M120.3,23.8l-0.2-0.3
	l-0.1-0.1l-0.1-0.2l0.6,0.1l-0.3,0.2l0.5,0.2L120.3,23.8z M119.2,23.5l0.3-0.6l0.1-0.3l0.1-0.3l0.7,1l-0.7-0.3l0.4,0.9L119.2,23.5z
	 M119.9,24.1l-0.2-0.1l-0.1,0l-0.1,0l0.3-0.2l-0.1,0.2l0.3-0.1L119.9,24.1z M119.6,24.7l-0.1-0.2l-0.1,0.1l0-0.3l0.1,0l0.1,0
	l0.1,0.1L119.6,24.7z M118.9,22.1l0.1-0.2l0-0.1l0.1-0.1l0.2,0.4l-0.2-0.1l0.1,0.4L118.9,22.1z M118.7,22.7l-0.2-0.3l-0.1-0.1
	l-0.1-0.1l0.6-0.1l-0.3,0.2l0.5,0L118.7,22.7z M118.9,24.7l0.1-0.2l-0.1,0.1l0.1-0.2l0,0.1l0,0.1l0.1,0.1L118.9,24.7z M118.9,24.9
	l-0.1-0.1l-0.1,0l-0.1,0l0.2-0.1l-0.1,0.1l0.2-0.1L118.9,24.9z M118.7,24.9L118.7,24.9L118.7,24.9l0-0.1L118.7,24.9L118.7,24.9
	L118.7,24.9L118.7,24.9z M118.6,23.1L118.6,23.1l0-0.2L118.6,23.1l0.2-0.3l0,0.2L118.6,23.1L118.6,23.1z M118.5,23.1l-0.1,0l0-0.1
	l0,0l0,0L118.5,23.1l-0.1-0.1L118.5,23.1z M118.3,23l0,0.1l-0.1-0.1L118.3,23L118.3,23L118.3,23L118.3,23L118.3,23z M118.1,23.2
	L118.1,23.2l-0.1,0l0,0l0.1-0.1L118.1,23.2l0.1-0.1L118.1,23.2z M117.8,22.8L117.8,22.8l-0.2,0l0.3-0.3L117.8,22.8l0.3-0.3l-0.1,0.3
	L117.8,22.8z M117.9,23.2L117.9,23.2l-0.1,0l0,0l0.1-0.1L117.9,23.2l0-0.1L117.9,23.2z M117.3,22.9l0-0.2l0-0.1l0-0.1l0.2,0.1
	l-0.2,0l0.2,0.1L117.3,22.9z M117.2,23.2l-0.1-0.1l0,0l0-0.1l0.3,0l-0.1,0.1l0.2,0L117.2,23.2z M117,23.4L117,23.4l-0.1,0l0.1-0.2
	L117,23.4l0.1-0.2l0,0.2L117,23.4z M116.8,22.7L116.8,22.7l-0.2-0.3l0.2,0.2l0-0.4l0.2,0.3L116.8,22.7L116.8,22.7z M116.7,23.9
	L116.7,23.9l-0.1,0l0.1-0.2L116.7,23.9l0.1-0.2l0,0.2L116.7,23.9z M116.5,23l0.1,0.1l0-0.2l0.1,0.2l-0.1,0.1l-0.1,0l-0.1,0L116.5,23
	z M116.4,22.2l0.1-0.1l0.1,0l0.1,0l0,0.3l-0.1-0.1l-0.1,0.2L116.4,22.2z M116.2,21.2L116.2,21.2l-0.2,0.1l0-0.4L116.2,21.2l0-0.4
	l0.2,0.3L116.2,21.2z M116,23.3l-0.1-0.2l0-0.1l0-0.1l0.4,0.1l-0.2,0.1l0.3,0.1L116,23.3z M116.1,24.1L116.1,24.1L116.1,24.1L116,24
	L116.1,24.1l0-0.2L116.1,24.1L116.1,24.1z M115.6,23.7l0.2,0.5l-0.5-0.2l0.2-0.3l0.1-0.1l0.1-0.2l0.3,0.5L115.6,23.7z M115.2,23.9
	l-0.1,0.1l-0.2-0.5l0.3,0.2l-0.1-0.5l0.4,0.3l-0.2,0.3L115.2,23.9z M114.8,23.6l-0.1,0.1l-0.1,0.4l-0.5-0.2l0.5-0.2l-0.4-0.1
	l0.6-0.1L114.8,23.6z M114.2,20.9l0.2,0.1l0.1,0l0.1,0l-0.3,0.3l0.1-0.2l-0.3,0.2L114.2,20.9z M113.9,20.9l-0.1-0.3l0.2-0.1l0.1,0
	l-0.1,0l0.1-0.2l0-0.1l0-0.1l0.3,0.3l-0.2-0.1l0.2,0.3l-0.2,0l-0.1,0.3l-0.1-0.2L113.9,20.9z M114.3,22.6l-0.2-0.3l0.2-0.1l0.1-0.1
	l0.1-0.1l0,0.4l-0.1-0.2L114.3,22.6z M115,23.3l-0.4,0l-0.2,0l-0.2,0l0.3-0.6l0,0.4l0.3-0.4L115,23.3z M115.4,23l-0.2-0.5l0.5,0.2
	l-0.2,0.3l-0.1,0.1l-0.1,0.2l-0.3-0.5L115.4,23z M115.1,22.1l0.2,0l0,0.2l0,0.1l0,0.1l-0.2-0.2l0.2,0L115.1,22.1z M115.5,21.6
	L115.5,21.6l0.1-0.2l0.2,0.4L115.5,21.6l0.2,0.4l-0.3-0.2L115.5,21.6z M115.9,20.3l0,0.1l0,0.1l0,0.2l-0.4,0l0.2-0.3l-0.2,0
	L115.9,20.3z M116.4,20l-0.1-0.1l0.3,0.1l-0.1,0L116.4,20l-0.1,0.2l-0.1-0.2L116.4,20z M116.7,21.4l0-0.1l0-0.1l0.3,0.3l-0.3-0.1
	l0.2,0.3l-0.4-0.1L116.7,21.4z M117.2,22.8l-0.2,0l0-0.2l0-0.1l0-0.1l0.2,0.1l-0.2,0L117.2,22.8z M117.4,22l0.1,0.1l0.2,0.1
	l-0.7,0.2l0.3-0.3l-0.6,0.1l0.4-0.4L117.4,22z M117.1,21.2l0.1,0.2l0.1-0.4l0.2,0.3l-0.2,0.1l-0.1,0.1l-0.1,0.1L117.1,21.2z
	 M117.9,21.3L117.9,21.3l-0.1,0l0.1-0.2L117.9,21.3l0.1-0.2l0,0.2L117.9,21.3z M117.7,21.7l-0.1-0.2l0.1-0.1l0.1,0l0.1,0l0,0.3
	l-0.1-0.1L117.7,21.7z M117.8,21.6l0,0.2l-0.2,0l-0.1,0l-0.1,0l0.2-0.2l0,0.2L117.8,21.6z M117.7,20.5l0.2,0.3l0.1-0.2l0.1,0.4
	l-0.1,0l-0.1,0l-0.2-0.1L117.7,20.5z M118.2,20.1L118.2,20.1L118.2,20.1L118.2,20.1l0-0.2l0-0.1l0-0.1l0.2,0.1l-0.2,0l0.2,0.1
	l-0.1,0l0,0.2L118.2,20.1l-0.1,0.3l-0.1-0.2L118.2,20.1z M118.4,3.5l-0.1-0.1l0.3,0.1l-0.1,0L118.4,3.5l-0.1,0.2l-0.1-0.2L118.4,3.5
	z M118.6,20.9l0,0.2l-0.2,0l-0.1,0l-0.1,0l0.1-0.2l0,0.2L118.6,20.9z M118.9,20.8l-0.1,0.1l0.2,0l-0.2,0.1l-0.1-0.1l0-0.1l0-0.1
	L118.9,20.8z M118.9,20.5L118.9,20.5l0.1-0.1l0.1,0.1l0,0l0-0.1l0-0.1l0.2,0.1l-0.2,0l0.2,0.1l-0.2,0l0-0.1L118.9,20.5l0.1,0.2
	l-0.2-0.1L118.9,20.5z M119.2,20.1L119.2,20.1l0.1-0.1l0.1,0.2L119.2,20.1l0.1,0.2l-0.2-0.1L119.2,20.1z M119.8,20l-0.1,0.2l0.4-0.1
	l-0.2,0.3l-0.2-0.1l-0.1-0.1l-0.1-0.1L119.8,20z M120,19.6l0,0.2l0.3-0.2l-0.1,0.4l-0.3,0l-0.1,0l-0.1,0L120,19.6z M120.5,20.1
	l0-0.4l0.2,0.3L120.5,20.1l0,0.1l-0.1,0.1l0.2,0l-0.2,0.3l-0.2-0.1l-0.1,0l0,0.3l0.2,0l-0.2,0.1l0.3,0.1l-0.3,0.1l-0.1-0.2l0-0.1
	l0-0.1l-0.1,0.3l0.3,0.3l-0.2-0.1l0.2,0.3l0.1-0.1l0,0.3l0.3-0.2l-0.1-0.1l-0.1,0l-0.1-0.1l0.3-0.1l-0.1,0.2l0.3,0l-0.2,0.2l0,0
	l-0.1,0.3l-0.3,0l-0.1,0l-0.1,0l0.2-0.2l-0.3-0.1l0.1-0.2l0-0.1l0-0.1l0,0l-0.2-0.4l0.3-0.2l0.1-0.1l0.1-0.1l0,0.1l0.2-0.1l0-0.2
	L120.5,20.1z M120.8,20.8l-0.2,0.1l0.4,0.1l-0.3,0.2l-0.1-0.2l-0.1-0.1l-0.1-0.1L120.8,20.8z M120.9,20.8l-0.4-0.1l0.1-0.2l0-0.1
	l0-0.1l0.3,0.3l-0.2-0.1L120.9,20.8z M120.5,21.9l0.3-0.1l-0.4-0.2l0.5-0.1l0.1,0.3l0,0.1l0,0.2L120.5,21.9z M120.6,22.6l-0.1-0.3
	l0-0.1l0-0.2l0.5,0.2l-0.4,0.1l0.4,0.3L120.6,22.6z M120.8,22.7l-0.3,0.2l0.5,0.1l-0.4,0.3l-0.2-0.3l-0.1-0.1l-0.1-0.1L120.8,22.7z
	 M120.3,22l-0.3,0.2l0.5,0.2l-0.5,0.2l-0.2-0.3l-0.1-0.1l-0.1-0.2L120.3,22z M119.2,21.4l0.2,0l0.1,0l0.1,0l-0.1,0.2l0-0.2l-0.1,0.2
	L119.2,21.4z M119.6,21.6l-0.2,0.2l0.4,0.1l-0.3,0.2l-0.2-0.2l-0.1-0.1l-0.1-0.1L119.6,21.6z M121.1,19.6l0-0.2l0.3,0.3l-0.1,0
	l-0.1,0l-0.2,0l-0.1-0.3L121.1,19.6z M121.4,22.3l-0.2,0.1l0.1-0.2l-0.1,0.1l0.1-0.2l0,0.1l0,0.1L121.4,22.3z M121.5,22.5l-0.2,0
	l0.2,0.1l-0.2,0l0-0.2l0-0.1l0-0.1L121.5,22.5z M112.5,23.8L112.5,23.8l-0.2,0l0.2-0.3l0,0.2l0.2-0.2l0,0.3L112.5,23.8z M112.4,24.4
	l-0.2-0.1l-0.1-0.1l-0.1-0.1l0.4-0.2l-0.2,0.2l0.4-0.1L112.4,24.4z M112.1,24.5l0.1,0.4l-0.4-0.2l0.1-0.3l0.1-0.1l0.1-0.1l0.2,0.4
	L112.1,24.5z M110.8,24.9l0-0.1l0-0.1l0-0.1l0.2,0.1l-0.1,0l0.2,0.1L110.8,24.9z M109.6,23.4l-0.3-0.1l0.1-0.2l0-0.1l0-0.1l0.3,0.3
	l-0.2-0.1L109.6,23.4z M108.9,23.3l0,0.4l-0.3-0.2L108.9,23.3l0-0.1l0.1-0.1l0.1,0.4L108.9,23.3z M108.8,24l-0.2,0.1l0.4,0.1
	l-0.3,0.2l-0.1-0.2l-0.1-0.1l-0.1-0.1L108.8,24z M108.7,25.2l-0.3-0.1l0.1-0.2l0-0.1l0-0.1l0.3,0.3l-0.2-0.1L108.7,25.2z
	 M108.3,25.7l-0.1-0.1l-0.1,0l-0.1,0l0.2-0.1l-0.1,0.1l0.2-0.1L108.3,25.7z M107.6,24.8l0.1-0.3l0-0.1l0-0.1l0,0l-0.1,0l0.2-0.4
	l0,0.3l0.2-0.3l0,0.4l-0.3,0l0,0l0.4,0.4l-0.3-0.1l0.2,0.4l0.1-0.1l0.2,0.4l-0.2-0.1l0.1,0.4l-0.3-0.2L108,25l0,0L107.6,24.8z
	 M107.7,25.4L107.7,25.4l0,0.1l-0.2-0.1L107.7,25.4l-0.2-0.2l0.2,0L107.7,25.4z M107.5,24.7l-0.1-0.1l0-0.1l0-0.1l0.3,0l-0.1,0.1
	l0.2,0L107.5,24.7z M107.5,25l-0.3,0l0-0.2l0-0.1l0-0.1l0.3,0.2l-0.2,0L107.5,25z M107.1,24.6l-0.1,0.1l0-0.4l0.1,0.2l0.1-0.4
	l0.2,0.3L107.1,24.6L107.1,24.6z M106.9,24l-0.2-0.1l-0.1-0.1l-0.1-0.1l0.3-0.1l-0.1,0.2l0.3,0L106.9,24z M106.5,23.7l-0.1-0.3
	l0.2,0.1l0-0.3l0.2,0.2l-0.1,0.2L106.5,23.7L106.5,23.7z M106.3,23.1l0.2-0.2l0.2,0.1l0.1,0.1l0.1,0.1l-0.3,0.1l0.1-0.2L106.3,23.1z
	 M107.3,22.9L107.3,22.9l0.1-0.2l0.2,0.4L107.3,22.9l0.2,0.4l-0.3-0.2L107.3,22.9z M107.5,24.2l-0.2,0l0-0.2l0-0.1l0-0.1l0.2,0.2
	l-0.2,0L107.5,24.2z M107.8,23.3l-0.2,0.2l-0.1,0.1l-0.1,0.1l-0.1-0.4l0.2,0.2l0-0.4L107.8,23.3z M107.7,22.3l0.1,0.2l0.1-0.3
	l0.1,0.3l-0.2,0.1l-0.1,0l-0.1,0L107.7,22.3z M108.2,23.6l0.1,0l-0.1,0.4l-0.1-0.2l-0.2,0.3l-0.1-0.3l0.2-0.1L108.2,23.6z
	 M108.4,23.8L108.4,23.8l0-0.2L108.4,23.8l0.2-0.2l0,0.2L108.4,23.8L108.4,23.8z M108.2,24.2l0-0.1l0-0.1l0-0.1l0.2,0.1l-0.1,0
	l0.2,0.1L108.2,24.2z M108.4,24.6l-0.2,0.1l-0.1-0.1l0,0l0-0.1l0.2,0l-0.1,0.1L108.4,24.6z M108.4,23L108.4,23l0.1-0.1l0.1,0.3
	L108.4,23l0,0.4l-0.2-0.2L108.4,23z M105.9,25.3l-0.1-0.2l-0.1,0.3l-0.1-0.3l0.2-0.1l0.1,0l0.1,0L105.9,25.3z M105.2,20.7l-0.3-0.1
	l0.1-0.2l0-0.1l0-0.1l0.3,0.3l-0.2-0.1L105.2,20.7z M104.4,24l-0.2-0.1l-0.1,0l-0.1,0l0.4-0.2l-0.1,0.2l0.3-0.1L104.4,24z M125.9,14
	C125.9,13.9,125.8,13.9,125.9,14c-0.1-0.2-0.2-0.2-0.2-0.3c0-0.1,0-0.1,0-0.2c0,0,0-0.1,0-0.1c0,0,0,0,0,0c0,0,0,0,0,0
	c-0.1,0-0.1,0-0.2-0.1c0,0-0.1-0.1,0-0.2c0-0.1,0-0.2,0-0.2c0,0,0-0.1,0-0.1c0,0,0-0.1,0-0.1c0.1-0.1,0.1-0.1,0.2-0.2
	c0,0,0,0,0.1-0.1c0,0,0,0,0,0c0,0,0,0,0,0l-0.2,0c0-0.1,0-0.2,0-0.2c0-0.2-0.1-0.4-0.1-0.7c0-0.1,0-0.2,0-0.3c0,0,0-0.1,0-0.1
	c0,0,0,0,0-0.1c0,0,0-0.1,0-0.1c0,0-0.1-0.1-0.1-0.1c-0.1-0.1-0.2-0.3-0.3-0.4c-0.1-0.1-0.1-0.1-0.1-0.1c0,0,0.1-0.1,0.1-0.1
	c0,0,0,0,0,0c0,0,0,0,0,0c0,0,0,0,0,0c-0.1-0.1-0.1-0.1-0.2-0.2c0,0,0,0,0,0c0,0-0.1,0.1-0.1,0.1l-0.1-0.1l0.2-0.2c0,0,0,0,0,0
	l0-0.1c0,0,0,0,0,0l-0.1,0c0,0,0,0,0,0l0.1,0c0,0,0,0,0,0c0.1-0.4-0.2-0.5-0.5-0.6c0,0,0,0-0.1,0l0.3-0.1c0,0,0,0,0,0c0,0,0,0,0,0
	c-0.1-0.3-0.2-0.2-0.4-0.2c0,0-0.1,0-0.1,0l0.3-0.2c0,0,0,0,0,0c0,0,0,0,0,0l-0.3-0.1c0,0,0,0,0,0l-0.2,0.2l-0.2-0.7c0,0,0,0,0,0
	c0,0,0,0,0,0l0,0c-0.1,0.1-0.3,0.1-0.4,0.1c0,0,0,0-0.1-0.1c0-0.2-0.1-0.3-0.2-0.5c0-0.1-0.1-0.2-0.1-0.2c-0.1-0.2-0.2-0.3-0.4-0.3
	c0,0,0,0-0.1,0c0,0,0,0,0,0c0,0,0,0,0,0c0,0,0,0,0.1-0.1c0,0,0,0,0.1,0c0,0,0,0,0,0c0,0,0,0,0,0l0-0.1c0,0,0,0,0,0l-0.2-0.1
	c0,0,0,0,0,0l-0.4,0.2l0,0l0.2-0.2c0,0,0,0,0,0l-0.2-0.3c0,0,0,0,0,0c-0.1,0-0.2,0-0.2,0c0,0,0-0.1,0-0.2c0-0.1,0-0.1,0-0.2
	c0,0,0,0,0,0c-0.1,0-0.2,0-0.3-0.1c0,0-0.1-0.1-0.1-0.1c0-0.1,0-0.2-0.1-0.2c-0.1,0-0.1,0-0.2,0c0,0,0,0,0,0c0,0,0,0,0,0l0.2-0.1
	c0,0,0,0,0,0c0,0,0,0,0,0l-0.4-0.4l0.1-0.1c0,0,0,0,0,0l0.1-0.1c0,0,0,0,0,0c0,0,0,0,0,0c-0.2,0.1-0.3,0.1-0.4,0
	c-0.1-0.1-0.2-0.2-0.2-0.3c0,0,0,0,0,0c0,0,0-0.1,0-0.1c0,0,0,0,0,0c0,0,0,0,0,0l-0.1,0c0,0,0,0,0,0c0,0,0,0.1,0,0.1
	c0,0.1,0,0.1,0,0.2c0,0.1,0,0.1-0.1,0.1c0,0-0.1,0-0.1,0c0,0,0-0.1,0-0.1c0,0,0-0.1-0.1-0.1c0,0,0,0,0,0c-0.1-0.1-0.2-0.2-0.3-0.2
	c-0.1,0-0.2,0-0.3,0c0,0-0.1,0-0.1,0l0-0.2l0.1,0.1c0,0,0,0,0,0l0.1,0c0,0,0,0,0,0c0,0,0-0.1,0-0.1c0-0.1-0.1-0.1-0.1-0.2
	c-0.1-0.1-0.2-0.1-0.3-0.1c0,0-0.1,0-0.1-0.1c0,0,0,0,0,0l-0.1,0.1c0,0,0,0-0.1,0c-0.1,0-0.1,0-0.2-0.1c0,0,0,0-0.1-0.1c0,0,0,0,0,0
	c0,0,0,0,0,0c0,0,0.1,0,0.1,0c0,0,0.1,0,0.1-0.1c0,0,0.1,0,0.1,0c0,0,0,0,0,0c0,0,0,0,0,0c-0.1,0-0.2,0-0.3,0
	c-0.6-0.1-1.1-0.1-1.5-0.5c0,0,0,0,0,0c0,0-0.1,0-0.1,0c0,0-0.1,0-0.1,0c0,0,0,0-0.1,0c0,0-0.1,0-0.1,0c-0.1,0-0.1,0-0.2,0
	c0,0,0,0,0,0l0.1-0.2c0,0,0,0,0,0c0,0,0,0,0,0l-0.2,0.1c0-0.1-0.1-0.1-0.1-0.1c-0.1,0-0.1,0-0.2,0c-0.3-0.4-0.7-0.3-1.1-0.2l0,0
	l0.1-0.1c0,0,0,0,0,0s0,0,0,0c-0.1-0.1-0.1-0.1-0.2-0.1c-0.1,0-0.1,0.1-0.2,0.1c0,0,0,0-0.1,0l-0.2-0.1c0-0.1-0.1-0.2-0.1-0.2
	c-0.1,0-0.1,0-0.3,0.1c0,0,0,0,0,0c0,0,0,0,0,0c0,0,0.1,0.1,0.1,0.1l0,0l-0.5-0.2c0,0,0,0,0,0l-0.1,0.1l-0.1-0.4c0,0,0,0,0,0l-0.3,0
	l0,0l0,0l0,0L112,0.8c0,0,0,0,0,0c0,0,0,0,0,0l-0.1,0.1c0,0,0,0,0,0c0,0,0,0,0,0l0.3,0.1l0,0L112,1.4l-0.2-0.2c0,0,0,0,0,0
	c0,0,0,0,0,0l-0.2,0.2l-0.8-0.5c0,0,0,0,0,0c-0.1,0-0.1,0.1-0.1,0.1c0,0.1,0,0.1,0.1,0.2c0,0.1,0.1,0.1,0.1,0.2c0,0,0,0,0,0
	c0,0-0.1,0-0.1,0C110.5,1,110.3,1,110.2,1c0,0-0.1,0-0.1,0c-0.1,0-0.3,0-0.4-0.1c-0.1,0-0.1,0-0.2,0c0,0,0,0,0,0l-0.1,0.2L109.2,1
	c0,0,0,0,0,0L109,1.3l-0.1-0.1c0,0,0,0,0,0c0,0,0,0,0,0c0,0,0,0-0.1,0c0,0,0,0-0.1,0c0,0-0.1-0.1-0.1-0.2c0,0,0,0,0-0.1c0,0,0,0,0,0
	c0,0-0.1,0-0.1,0c-0.1,0-0.2,0.1-0.2,0.1c-0.2,0.2-0.5,0.3-0.9,0.3c0,0,0,0,0,0c0,0-0.1,0-0.1,0c-0.1,0.1-0.3,0.2-0.7,0.1
	c0,0,0,0,0,0c0,0,0,0,0,0l0.2,0.4h-0.4l0-0.2c0,0,0,0,0,0c0,0,0,0,0,0L106,1.7c0,0,0,0,0,0l0,0.1c0,0,0,0,0,0l0,0
	c0.1,0.1,0.1,0.2,0.2,0.2c-0.1,0-0.3,0-0.4-0.1l0,0c0,0,0,0,0,0c0,0,0,0,0,0l0,0l-1.3,0.4l0-0.1c0,0,0,0,0,0c0,0,0,0,0,0l-0.1,0.1
	c0,0,0,0,0,0v0.2l-0.3,0c0,0,0,0,0,0c0,0,0,0,0,0l0,0.2c0,0,0,0,0,0c-0.1,0-0.1,0.1-0.2,0.1c0,0-0.1,0-0.1,0c-0.1,0-0.2,0.1-0.3,0.1
	c-0.2,0-0.2,0-0.3,0.2c0,0.1-0.1,0.2-0.1,0.2c0,0,0,0.1-0.1,0.1c-0.1,0.1-0.1,0.2-0.2,0.3c0,0-0.1,0.1-0.1,0.1l0,0V3.7c0,0,0,0,0,0
	c0,0,0,0,0,0c0,0-0.1,0-0.1,0.1c-0.1,0-0.1,0.1-0.2,0.1c-0.1,0-0.1,0.1-0.2,0.1c0,0-0.1,0-0.1,0c0,0,0,0,0,0s0,0,0,0
	c0,0,0,0.1,0,0.1c0,0.1,0.1,0.1,0.1,0.2c0,0,0,0.1,0,0.1c0,0,0,0,0,0c-0.1,0-0.1,0-0.1,0c-0.1-0.1-0.1-0.2-0.2-0.2
	c-0.1,0-0.1,0.1-0.2,0.2c0,0-0.1,0-0.1,0.1c0,0,0,0,0,0c0,0,0,0,0,0l0,0.2l-0.3-0.2c0,0,0,0,0,0c0,0,0,0,0,0c0,0,0,0,0,0.1
	c0.1,0.2,0.1,0.4,0,0.6c-0.1,0.1-0.2,0.1-0.3,0.1c0,0,0,0,0,0c0,0,0,0,0,0c0.1,0.1,0.1,0.1,0.1,0.2c0,0-0.1,0.1-0.1,0.1
	c-0.1,0.1-0.2,0.1-0.2,0.3c0,0,0,0,0,0l0.2,0.1c-0.4,0.1-0.7,0.3-0.8,0.7c0,0,0,0,0,0c0,0,0,0,0,0c0,0,0.1-0.1,0.1-0.1
	c0,0,0.1,0,0.1,0.1c0,0,0,0,0,0l0.1-0.1l0.1-0.1l0.1,0.3l-0.1-0.2l0,0.3L100.2,7l0,0c-0.1,0-0.1,0-0.2,0c0,0,0,0,0-0.1c0,0,0,0,0,0
	c0,0,0,0,0,0c-0.1,0-0.2,0.1-0.3,0.1c0,0,0,0,0,0l0,0.1c0,0,0,0,0,0c0,0,0.1,0,0.1,0.1c0.1,0.1,0.2,0.1,0.3,0.2c0,0,0,0,0,0.1
	c-0.3-0.1-0.3-0.1-0.5,0c0,0,0,0,0,0c0.2,0.2,0.2,0.3-0.2,0.5c0,0,0,0,0,0c0,0,0,0,0,0l0.5,0l0,0.1h-0.3c0,0,0,0,0,0l0,0.1
	c0,0,0,0,0,0l0.3,0.1l-0.4,0.3c0,0,0,0,0,0c0,0,0,0,0,0l0.3,0.1l0,0l-0.3,0c0,0,0,0,0,0c0,0,0,0,0,0l0.1,0.7c0,0,0,0-0.1,0.1
	c-0.1,0-0.2,0-0.3-0.1c0,0,0,0,0,0c-0.2,0.3-0.2,0.6-0.2,1l-0.2,0.2c0,0,0,0,0,0s0,0,0,0l0.3,0.1c0,0.1-0.1,0.1-0.1,0.2
	c-0.1,0.2-0.2,0.3-0.4,0.5c-0.2,0.3-0.2,0.4,0,0.7c0.1,0.1,0.1,0.1,0.1,0.2c0,0-0.1,0.1-0.1,0.1c-0.1,0-0.2,0-0.2,0.1
	c0,0,0,0.1,0,0.1c0,0,0,0,0,0l-0.2,0.6c0,0,0,0,0,0l0.2,0.1l-0.1,0.1c0,0,0,0,0,0c0,0,0,0,0,0l0.3,0.2l-0.2,0.2c0,0,0,0,0,0
	c0,0,0,0,0,0c0.1,0,0.1,0.1,0.2,0.2c0,0.1,0,0.2-0.1,0.2c-0.1,0.1-0.2,0.2-0.2,0.3c0,0.1-0.1,0.1-0.1,0.2c0,0,0,0,0,0c0,0,0,0,0,0
	l0.4-0.1l0,0l-0.3,0.2c0,0,0,0,0,0c0,0,0,0,0,0l0.2,0.1L98.1,16c0,0,0,0,0,0c0,0,0,0,0,0c0.1,0,0.2,0,0.2,0c0,0,0,0.1,0.1,0.2
	c0,0.1,0,0.2,0.1,0.2c0,0,0,0,0,0l0.1-0.2c0,0,0,0,0,0c0,0,0.1,0,0.1,0.1c0,0.1,0,0.2,0,0.2c0,0-0.1,0.1-0.1,0.1c0,0-0.1,0-0.1,0.1
	c0,0-0.1,0-0.1,0.1c0,0,0,0,0,0c0,0,0,0,0,0l0.2,0.1c0,0.1,0,0.1,0,0.2c0,0.2,0,0.3,0.2,0.5l0,0c0,0,0,0,0,0c0,0,0,0,0,0
	c0.2,0,0.2,0.1,0.2,0.2c0,0.1,0,0.2,0.1,0.2l0,0l0.1,0c-0.2,0.1-0.3,0.1-0.3,0.2c0,0.1,0,0.2,0.1,0.3c0,0,0.1,0.1,0.1,0.1
	c0,0,0.1,0.1,0.1,0.1c0.1,0.1,0.1,0.2,0.2,0.2c0,0,0.1,0.1,0.1,0.1l-0.1,0.2c0,0,0,0,0,0l0.1,0.5c0,0,0,0,0,0L100,20
	c-0.1,0.1-0.1,0.2-0.1,0.3c0,0.1,0.1,0.2,0.3,0.3l-0.1,0.2c0,0,0,0,0,0c0,0,0,0,0,0l0.2,0.1l-0.1,0.1c0,0,0,0,0,0l0.4,0.4h0
	c0,0-0.1,0-0.1,0c0,0,0,0,0,0c-0.1,0.1-0.2,0.1-0.2,0.2c0,0.1,0,0.1,0,0.1c0.1,0,0.1,0,0.2,0c0.1,0,0.2,0,0.2,0c0,0,0,0,0.1,0v0
	l-0.2,0.1c0,0,0,0,0,0l0,0c0,0,0,0,0,0l0.4-0.1l0,0l-0.4,0.4c0,0,0,0,0,0l0,0.1c0,0,0,0,0,0s0,0,0,0c0.3-0.2,0.5-0.1,0.7,0.1
	c0.1,0.1,0.1,0.1,0.2,0.2c0,0,0,0,0,0c0,0,0,0,0,0c0,0,0,0,0,0c0,0,0-0.1,0.1-0.1c0,0,0,0,0.1,0c0,0.1,0,0.2,0,0.2l0,0c0,0,0,0,0,0
	l0.3,0.6c0,0,0,0,0,0h0.2c0,0,0,0,0,0c0,0,0,0,0,0c0,0,0,0,0,0c0.1-0.1,0.2-0.1,0.2-0.2l-0.1,0.3c0,0,0,0,0,0c0,0,0,0,0,0
	c0,0,0.1,0,0.1-0.1c0.1,0,0.1-0.1,0.2-0.1c0,0,0.1-0.1,0.2-0.1c0,0,0,0,0.1,0c0,0,0,0,0,0c0,0,0,0,0,0c0,0,0,0-0.1,0
	c0,0-0.1-0.1-0.1-0.1c0-0.1-0.1-0.2-0.1-0.3c0,0,0-0.1,0-0.1c0,0,0,0,0,0c0,0,0,0,0,0l0,0l0,0l0.1,0.1c0,0,0,0,0,0c0,0,0,0,0,0
	l0.2-0.1l0.1,0.5c0,0,0,0,0,0c0.2,0.1,0.3,0.1,0.4,0c0.1-0.1,0.1-0.2,0.1-0.4c0,0,0,0,0-0.1c0,0,0-0.1,0-0.1c0,0,0,0,0-0.1l0.1,0.3
	l-0.1,0.5l-0.2,0c0,0,0,0,0,0c0,0,0,0,0,0c0,0,0,0,0,0c0,0,0,0,0,0c0,0.1-0.1,0.1-0.1,0.2c0,0,0,0,0,0c0,0,0,0,0,0
	c0,0-0.1-0.1-0.1-0.1c0,0-0.2-0.1-0.3,0c-0.1,0-0.1,0.1-0.1,0.1c0,0,0,0,0,0.1c0,0,0,0,0,0l0.1,0.2c0,0,0,0,0,0c0,0,0,0,0,0
	c0.2-0.1,0.2,0,0.3,0.1c0,0,0.1,0.1,0.1,0.1l-0.1,0.2c0,0,0,0,0,0c0,0,0,0,0,0l0.2,0c0,0,0,0,0,0l0.1-0.1c0,0,0,0,0,0
	c0,0,0.1,0.1,0.1,0.1c0,0.1,0,0.2,0.1,0.2c0,0,0.1,0,0.2,0c0,0,0,0,0,0l0,0c0,0,0,0,0,0c0,0,0,0,0,0c0,0-0.1,0-0.1,0c0,0,0,0-0.1,0
	c-0.2,0-0.4,0.1-0.6,0.3c0,0,0,0,0,0c0,0,0,0,0,0c0.2,0,0.4,0,0.6,0c0.1,0,0.3,0,0.4,0.1c0,0,0,0.1,0.1,0.1c0,0,0,0,0,0c0,0,0,0,0,0
	c0,0,0,0,0,0c0-0.2,0.1-0.2,0.2-0.2c0.1,0,0.1,0,0.1,0c0,0,0,0,0,0.1c0.1,0.1,0.1,0.1,0.1,0.2c0,0-0.1,0.1-0.1,0.1
	c0,0-0.1,0.1-0.1,0.1c0,0,0,0,0,0c0,0,0,0,0,0l0.5,0.1l0,0.3c0,0,0,0,0,0c0,0,0,0,0,0c0,0,0,0,0,0c0.1,0,0.1-0.1,0.2-0.1
	c0.1-0.1,0.2-0.2,0.3-0.2c0.1,0,0.2-0.1,0.2-0.1c0-0.1,0-0.1,0-0.2c0.1,0,0.2,0.1,0.2,0.1c0,0.1,0,0.1-0.1,0.3c0,0,0,0,0,0
	c0,0,0,0,0,0c0.1-0.1,0.1-0.1,0.2-0.1c0,0,0.1,0.1,0.1,0.2c0,0,0,0,0,0c0,0,0,0,0,0l0.1,0c0,0,0,0,0,0l-0.1-0.3
	c0.1,0.1,0.1,0.1,0.2,0.1c0.1,0.1,0.3,0.1,0.3,0.1c0.1-0.1,0.2-0.1,0.3-0.1c0,0,0.1,0,0.1,0.1c0,0,0,0,0,0l0.9,0.2c0,0,0,0,0,0
	l0.5-0.7c0.1,0,0.2,0,0.3-0.1c0.1-0.2,0.1-0.5,0-0.8c0,0,0,0,0,0s0,0,0,0l-0.2,0.1c0,0,0,0,0,0l0,0l0,0.1l0.1,0.2l-0.3,0.2l0.1-0.3
	l-0.2,0.1l0.2-0.3l0,0c0-0.2-0.1-0.3-0.3-0.4l0.3-0.1h0h0l0.4,0.1l-0.2,0.1l0.3,0.1l0.3-0.2l0,0l0.1-0.1l0.1-0.1l0,0.4l-0.1-0.2
	l-0.1,0.3l-0.1-0.2c-0.1,0.1-0.2,0.2-0.2,0.2c0,0,0,0,0,0l0.5,0l-0.3,0.2c0,0,0,0,0,0l0.4,0.1l-0.4,0.2l-0.1-0.1c0,0,0,0,0,0
	l-0.1-0.1l0,0.2l-0.1-0.1l0,0.2c0,0,0,0,0,0c0,0,0,0,0,0l0.1,0c0,0,0,0,0,0c0.1,0,0.1-0.1,0.2-0.1c0.2-0.1,0.4-0.2,0.6-0.3l-0.1,0
	l-0.1,0l0.3-0.3l-0.1,0.2l0.3-0.2l-0.1,0.3l-0.1,0c0,0-0.1,0-0.1,0.1c0,0-0.1,0-0.1,0c-0.1,0-0.2,0-0.2,0.1c0,0.1,0,0.2,0,0.3
	c0,0,0,0.1,0,0.1c0,0,0,0,0,0l0.1,0c0,0,0,0,0,0l0-0.2l0.1,0l0.1,0.5l0.2-0.3l0,0.3l0.3-0.2l0.4-0.3c0,0,0.1,0,0.1-0.1c0,0,0,0,0,0
	c0,0,0,0,0,0l-0.1,0l-0.2,0.1l0.1-0.2l-0.1,0.1l0.1-0.2l-0.1-0.1c0.1-0.1,0.1-0.1,0.2-0.2c0.1-0.2,0.3-0.3,0.4-0.5
	c0,0,0.1-0.1,0.2-0.1c0,0,0,0,0,0l-0.6,0.7c0,0,0,0,0,0c0,0,0,0,0,0l0,0c0,0,0.1,0.1,0.2,0.1c0,0,0,0,0,0c0,0,0.1-0.1,0.1-0.1l0,0
	v0.8c0,0,0,0,0,0c0,0,0,0,0,0l0.3-0.1l0.1,0.3c0,0,0,0,0,0c0,0,0,0,0,0l0.3-0.2c0,0,0,0,0,0c0,0,0,0,0,0l-0.2-0.1l0,0l0.3,0.1
	c0,0,0,0,0,0l0.1-0.4c0,0,0,0,0,0c0,0.1,0.1,0.1,0.1,0.1c0.1,0,0.2-0.1,0.2-0.1c0,0,0,0,0-0.1c0-0.1,0-0.1,0-0.1c0,0,0-0.1,0.1-0.1
	c0,0,0,0,0,0l0.1,0c0,0,0,0.1,0,0.1c0,0.1,0,0.2,0,0.3c0,0,0,0.1,0,0.1c0,0-0.1,0.1,0,0.1c0,0.1,0.2,0.2,0.2,0.2
	c0.1,0,0.1-0.1,0.2-0.1c0,0,0,0,0,0c0,0,0.1,0,0.1,0c0,0,0.1,0,0.1,0.1c0,0,0,0.1,0,0.1c0,0,0,0,0,0c0,0,0,0,0,0c0,0,0,0,0.1,0
	c0,0,0.1,0.1,0.1,0.1c0.1,0,0.1,0,0.2,0l0,0.3l0.2-0.2l0,0.2l0.2-0.2l0.3,0.1c0,0,0,0,0,0c0,0,0,0,0,0l0.1-0.4c0,0,0,0,0,0
	c-0.1,0-0.2,0-0.3,0c-0.1,0-0.1,0.1-0.2,0.1l-0.1,0.1l0-0.6l0.2,0.3l0.1-0.5l0.3,0.4c0.2,0,0.3,0,0.3,0c0,0,0,0,0,0l0.1-0.3
	l-0.3,0.2l0.3-0.6l0.1,0.1l0.1,0.1l0.2,0.3c0.2,0,0.3-0.1,0.3-0.1l0.2-0.2c0.1,0,0.2,0,0.2,0c0.1,0,0.1-0.1,0.1-0.2l0.2-0.2l0.2,0.1
	c0,0,0,0,0,0l0.1,0v0c0,0,0,0,0,0c0,0,0,0,0,0l0,0l1.1-0.7l-0.3,0.7l1-0.4l-0.2,0.5l0.3,0.2l-0.1,0.1l0,0c-0.1,0-0.2,0.1-0.3,0.1
	c0,0,0,0,0,0v0.6c-0.1,0-0.3-0.1-0.4-0.1l0,0c0,0,0,0,0,0c-0.1,0.2-0.1,0.3,0,0.4c0.1,0.1,0.2,0.2,0.4,0.2c0,0,0.1,0,0.1,0
	c0,0,0,0,0,0c0,0,0,0,0,0l-0.1-0.2l0.1-0.1l0.6,0.4c0,0,0,0,0,0c0,0,0,0,0,0c0,0,0,0,0,0l-0.1-0.2L119,25v0c0,0,0,0,0,0l0,0
	c0,0,0,0,0,0l0,0l0,0c0,0,0,0,0,0c0,0,0,0,0,0l0,0c0,0,0,0,0,0l0,0v0c0,0,0,0,0.1-0.1c0.1-0.1,0.1-0.1,0.2-0.2c0,0,0,0,0.1,0l0,0
	c0,0,0,0.1,0,0.1c0,0,0,0.1,0,0.1l0,0c0,0,0,0,0,0c0,0,0,0,0,0l0.7,0c0,0,0,0,0,0c0,0,0,0,0,0l-0.3-0.3c0-0.1,0-0.1,0.1-0.2
	c0,0,0,0,0.1,0c0,0,0,0.1,0,0.2c0,0.1,0.1,0.1,0.1,0.1c0.1,0,0.1,0,0.2,0c0.1,0,0.1,0,0.1,0l-0.2,0.5c0,0,0,0,0,0c0,0,0,0,0,0
	c0,0,0.1,0,0.1,0c0.1,0,0.1,0,0.1,0c0.1-0.1,0.2-0.1,0.4,0c0,0,0,0,0.1,0c0,0,0.1,0,0.1,0.1c0,0,0,0.1-0.1,0.1c0,0,0,0.1-0.1,0.1
	c0,0,0,0,0,0.1c0,0,0,0,0,0c0,0,0,0,0,0l0.1,0c0,0,0,0,0,0c0,0,0-0.1,0-0.1c0-0.1,0-0.2,0.1-0.2c0-0.1,0.1-0.1,0.2-0.1
	c0,0,0.1,0,0.1-0.1c0,0,0,0,0,0c0,0,0,0,0,0l-0.2-0.1c0,0,0.1,0,0.1,0h0c0,0,0,0,0,0l0.1-0.2l0.2,0.4c0,0,0,0,0,0c0,0,0,0,0,0
	l0.3-0.7l0.3-0.1c0,0,0,0,0,0c0,0,0,0,0,0l-0.1,0c0,0,0-0.1,0-0.1c0-0.1,0-0.2,0-0.2c0,0,0.1-0.1,0.1-0.1c0,0,0,0,0,0
	c0.1,0.3,0.1,0.4,0.2,0.4c0.1,0,0.2-0.1,0.5-0.3c0,0,0,0,0,0l-0.1-0.3c0,0,0,0,0,0c0,0,0,0,0,0l-0.2,0.3l-0.1-0.1c0,0,0-0.1,0.1-0.1
	c0-0.1,0.1-0.1,0.1-0.2c0,0,0.1,0,0.1,0c0,0,0,0,0,0c0,0,0,0.1,0,0.1c0,0,0.1,0,0.2,0c0,0,0,0,0.1,0c0.1,0,0.3,0,0.4-0.1
	c0,0,0-0.1,0.1-0.2c0,0,0-0.1,0-0.1c0,0,0,0,0,0c0,0,0,0,0,0l-0.1,0.1l-0.1-0.2h0.2c0,0,0,0,0,0l0.2-0.3c0,0,0,0,0,0c0,0,0,0,0,0
	l-0.2-0.1l0.1-0.2c0,0,0,0,0,0l-0.3-0.5l0,0l0.2,0.3c0,0,0,0,0,0c0.1-0.1,0.2-0.1,0.2-0.2c0-0.1,0-0.1-0.1-0.2c0,0-0.1-0.1-0.1-0.1
	L124,22c0,0,0,0,0,0c0,0,0,0,0,0l0.2-0.5c0,0,0,0,0,0c0,0,0,0,0,0l-0.3,0.1l0.2-0.2l0.1,0.1v0.3c0,0,0,0,0,0l0.1,0c0,0,0,0,0,0
	l0.5-0.5c0,0,0,0,0,0c0,0,0,0,0,0l-0.4-0.1l0,0l0.3-0.1c0,0,0,0,0,0c0,0,0,0,0,0l-0.1-0.2l0.2-0.2c0,0,0.1,0.1,0.1,0
	c0.1,0,0.1-0.1,0.1-0.1c0,0,0.1-0.1,0.1-0.1c0,0,0,0,0,0c0,0,0,0,0,0c0,0-0.1,0-0.1,0c0,0,0,0-0.1,0c0-0.1,0.1-0.2,0.1-0.3l0-0.1
	c0,0,0,0,0,0c-0.1-0.1-0.2-0.1-0.2-0.1c0,0,0-0.1,0.1-0.2c0-0.1,0.1-0.2,0-0.2l0,0c-0.1-0.1-0.1-0.1-0.1-0.1c0,0,0,0,0-0.1l0,0.2
	c0,0,0,0,0,0c0,0,0,0,0,0l0.2-0.4c0,0,0,0,0,0c0-0.1,0-0.3,0-0.4c0-0.1,0-0.2,0-0.3c0,0-0.1-0.1-0.2-0.1L125,18
	c0-0.1,0.1-0.1,0.1-0.1c0.1-0.1,0.2-0.1,0.1-0.3c0-0.1-0.1-0.2-0.2-0.3c0,0-0.1-0.1-0.1-0.1c0,0,0,0,0,0l0.2-0.2c0,0,0,0,0,0
	c0,0,0,0,0,0c0,0-0.1-0.1-0.1-0.1c0,0,0.1-0.1,0.1-0.1c0,0,0.1,0,0.1-0.1c0,0,0,0,0,0c0,0,0,0,0,0c0,0,0,0-0.1,0
	c0,0-0.1-0.1-0.1-0.1c0,0,0-0.1,0-0.1c0-0.1,0.1-0.1,0.1-0.2c0,0,0,0,0-0.1l0.2,0c0,0,0,0,0,0c0,0,0,0,0,0v-0.5c0,0,0,0,0,0
	l-0.3-0.2l0,0l0.3,0c0,0,0,0,0,0c0,0,0-0.1,0-0.1c0,0,0-0.1,0-0.1c0.2-0.1,0.2-0.3,0.2-0.5c0-0.1,0-0.1,0-0.2c0-0.1,0-0.2,0-0.2
	c0,0,0,0,0,0c-0.2,0-0.2-0.1-0.2-0.2c0-0.1,0-0.1,0-0.2l0,0L125.9,14C125.9,14,125.9,14,125.9,14C125.9,14,125.9,14,125.9,14"/>
<path class="st1" d="M100.2,6.8C100.2,6.8,100.2,6.8,100.2,6.8l0,0.1L100.2,6.8L100.2,6.8C100.2,6.8,100.2,6.8,100.2,6.8"/>
</svg>
